<svg width="250" height="180" viewBox="0 0 250 180" fill="none" xmlns="http://www.w3.org/2000/svg">
<rect width="250" height="180" rx="43.6047" fill="black"/>
<path d="M78.1484 84.8372C49.3112 84.8372 34.8926 75.5581 34.8926 56.9999V34.8837H56.5205V56.3023C56.5205 64.6279 63.7298 68.7906 78.1484 68.7906C92.567 68.7906 99.7763 64.6279 99.7763 56.3023V34.8837H121.404V56.9999C121.404 75.5581 106.986 84.8372 78.1484 84.8372Z" fill="url(#paint0_linear_675_6)"/>
<path d="M128.596 83.7209V34.8837H160.898L171.852 56.0232L182.805 34.8837H215.107V83.7209H194.177V53.7209L194.107 53.9302L178.619 83.7209H165.084L149.596 53.9302L149.526 53.7209V83.7209H128.596Z" fill="url(#paint1_linear_675_6)"/>
<path d="M37.0423 143.512V94.6744H106.6C111.624 94.6744 115.438 95.8139 118.042 98.093C120.693 100.326 122.019 103.326 122.019 107.093C122.019 110.07 121.112 112.488 119.298 114.349C117.484 116.209 114.647 117.488 110.786 118.186V119.581C114.926 119.953 118.089 121.139 120.275 123.139C122.461 125.093 123.554 127.721 123.554 131.023C123.554 134.744 122.228 137.767 119.577 140.093C116.973 142.372 113.391 143.512 108.833 143.512H37.0423ZM58.6702 113.721H96.9725C97.8563 113.721 98.5539 113.465 99.0656 112.953C99.5772 112.442 99.833 111.767 99.833 110.93C99.833 110.046 99.5539 109.372 98.9958 108.907C98.4842 108.395 97.8097 108.139 96.9725 108.139H58.6702V113.721ZM58.6702 130.046H98.0888C98.9725 130.046 99.6702 129.791 100.182 129.279C100.693 128.767 100.949 128.093 100.949 127.256C100.949 126.372 100.67 125.698 100.112 125.233C99.6004 124.721 98.926 124.465 98.0888 124.465H58.6702V130.046Z" fill="url(#paint2_linear_675_6)"/>
<path d="M169.702 144.628C160.958 144.628 153.33 143.605 146.818 141.558C140.353 139.512 135.353 136.628 131.818 132.907C128.283 129.139 126.516 124.674 126.516 119.512V118.674C126.516 113.512 128.283 109.07 131.818 105.349C135.353 101.581 140.353 98.6744 146.818 96.6279C153.33 94.5813 160.958 93.5581 169.702 93.5581C180.26 93.5581 189.19 95.0697 196.493 98.093C203.795 101.07 209.283 105.256 212.958 110.651L191.26 117.07C189.399 114.651 186.679 112.814 183.097 111.558C179.562 110.256 175.097 109.605 169.702 109.605C165.609 109.605 162.004 109.977 158.888 110.721C155.818 111.465 153.423 112.512 151.702 113.86C149.981 115.209 149.12 116.814 149.12 118.674V119.512C149.12 121.372 149.981 123 151.702 124.395C153.423 125.744 155.818 126.791 158.888 127.535C162.004 128.233 165.609 128.581 169.702 128.581C175.097 128.581 179.562 127.953 183.097 126.698C186.679 125.395 189.399 123.535 191.26 121.116L212.958 127.535C209.283 132.93 203.795 137.139 196.493 140.163C189.19 143.139 180.26 144.628 169.702 144.628Z" fill="url(#paint3_linear_675_6)"/>
<defs>
<linearGradient id="paint0_linear_675_6" x1="125" y1="11.5" x2="125" y2="167.5" gradientUnits="userSpaceOnUse">
<stop stop-color="#F2F2F2"/>
<stop offset="1" stop-color="#2D2D2D"/>
</linearGradient>
<linearGradient id="paint1_linear_675_6" x1="125" y1="11.5" x2="125" y2="167.5" gradientUnits="userSpaceOnUse">
<stop stop-color="#F2F2F2"/>
<stop offset="1" stop-color="#2D2D2D"/>
</linearGradient>
<linearGradient id="paint2_linear_675_6" x1="125" y1="11.5" x2="125" y2="167.5" gradientUnits="userSpaceOnUse">
<stop stop-color="#F2F2F2"/>
<stop offset="1" stop-color="#2D2D2D"/>
</linearGradient>
<linearGradient id="paint3_linear_675_6" x1="125" y1="11.5" x2="125" y2="167.5" gradientUnits="userSpaceOnUse">
<stop stop-color="#F2F2F2"/>
<stop offset="1" stop-color="#2D2D2D"/>
</linearGradient>
</defs>
</svg>
